<svg width="223" height="222" viewBox="0 0 223 222" fill="none" xmlns="http://www.w3.org/2000/svg">
<path fill-rule="evenodd" clip-rule="evenodd" d="M71.6693 92.414L71.667 92.4133C65.3353 90.6009 58.9923 88.7852 52.6137 87.1506C48.8824 86.1887 45.1086 85.3414 41.3349 84.4941C38.0326 83.7527 34.7296 83.0111 31.4558 82.1929C26.3297 80.9509 25.2189 79.5662 25.8983 74.9291C27.0088 67.5514 28.2538 60.1616 29.7302 52.8483C31.5276 44.1264 33.9453 35.5137 37.7975 27.4117C17.3728 45.5971 3.55001 71.3182 0.913642 100.733C-2.82993 142.502 16.9489 180.931 49.2882 202.872C52.3657 199.182 57.8459 194.11 63.2874 189.783C68.135 186.953 70.6345 185.8 72.9698 184.723C74.3545 184.084 75.6816 183.472 77.4062 182.553C79.5306 181.396 81.4061 181.315 83.1686 183.226C87.4251 187.916 91.6379 192.57 95.8583 197.297L97.2591 198.872L97.2608 198.874C103.155 205.499 109.077 212.155 114.899 218.846C115.878 219.962 116.564 220.93 116.936 221.79C171.474 219.144 217.113 176.506 222.137 120.457C227.437 61.3146 185.578 8.86905 127.678 0.44223C128.24 1.55774 128.745 2.71823 129.194 3.92135C132.479 12.5825 132.248 21.2683 130.286 29.891C126.512 46.7335 117.853 61.5092 108.17 75.8902C103.821 82.367 99.4134 88.8247 94.9482 95.2633C92.7157 98.4826 91.8532 98.7063 87.5727 97.4612C85.8118 96.9546 84.0841 96.3584 82.3563 95.7623C81.4924 95.4642 80.6284 95.166 79.7603 94.8791C79.8487 94.9083 79.8576 94.8453 79.8652 94.7914C79.8662 94.7841 79.8673 94.7765 79.8685 94.7698C79.87 94.7614 79.8717 94.7537 79.8742 94.7471C77.14 93.98 74.4058 93.1973 71.6693 92.414ZM115.93 132.871C124.089 124.604 132.744 116.878 143.747 111.676C151.617 107.949 160.011 105.795 169.216 107.196C182.162 109.098 190.127 116.685 194.671 127.597C198.899 137.779 197.773 147.757 194.698 157.488C191.765 166.662 186.507 174.675 180.183 182.088C169.438 194.766 155.343 203.765 140.429 211.825C139.311 212.421 138.208 213.047 137.103 213.673C135.205 214.749 133.303 215.828 131.322 216.761C128.261 218.161 126.703 217.829 124.42 215.157C122.825 213.266 121.306 211.31 119.789 209.355C117.827 206.828 115.866 204.303 113.742 201.922C105.799 193.008 97.6304 184.247 89.4262 175.524C85.8213 171.703 85.6473 170.417 88.6232 166.66C92.6466 161.606 96.6501 156.553 100.653 151.5L100.661 151.491C104.662 146.441 108.663 141.391 112.684 136.34C113.391 135.427 114.192 134.625 114.988 133.828C115.305 133.511 115.621 133.194 115.93 132.871ZM67.3553 153.585C74.7868 149.484 79.6999 143.589 82.5409 136.274C82.6772 135.848 82.8328 135.429 82.9876 135.011C83.2974 134.175 83.6043 133.347 83.7486 132.49C84.7267 125.295 85.3798 120.466 86.2812 113.302C86.4399 111.998 86.4443 109.968 84.631 107.852C83.9366 107.58 83.2456 107.298 82.5547 107.017L82.5532 107.017C80.479 106.172 78.4048 105.328 76.2361 104.738C71.012 103.326 65.741 101.986 60.4721 100.646L60.4706 100.646L60.4695 100.646L60.4681 100.645L60.4655 100.645L60.4629 100.644C56.2664 99.5773 52.0714 98.5108 47.9023 97.4085C45.6533 96.8102 43.4247 96.1566 41.2007 95.5044L41.1997 95.5041C38.2205 94.6304 35.2486 93.7589 32.2476 93.0259C28.2445 92.8096 26.0264 93.9975 25.3575 97.4194C25.3476 97.9093 25.3375 98.3991 25.3273 98.8889L25.3272 98.8935C25.0958 110.079 24.865 121.233 27.0683 132.412C27.7796 135.926 28.9912 139.492 30.6807 142.821C37.2446 155.957 54.1351 160.861 67.3553 153.585Z" fill="url(#paint0_linear_33_24)"/>
<defs>
<linearGradient id="paint0_linear_33_24" x1="176.901" y1="14.0192" x2="48.7087" y2="215.475" gradientUnits="userSpaceOnUse">
<stop offset="0.355" stop-color="#0C2B80"/>
<stop offset="1" stop-color="#580009"/>
</linearGradient>
</defs>
</svg>
